<?xml version="1.0" encoding="UTF-8" standalone="no"?>
<!-- Created with Inkscape (http://www.inkscape.org/) -->

<svg
   width="256"
   height="256"
   viewBox="0 0 67.733332 67.733333"
   version="1.1"
   id="svg10545"
   xml:space="preserve"
   inkscape:version="1.2 (1:1.2.1+202207142221+cd75a1ee6d)"
   sodipodi:docname="help.svg"
   xmlns:inkscape="http://www.inkscape.org/namespaces/inkscape"
   xmlns:sodipodi="http://sodipodi.sourceforge.net/DTD/sodipodi-0.dtd"
   xmlns="http://www.w3.org/2000/svg"
   xmlns:svg="http://www.w3.org/2000/svg"><sodipodi:namedview
     id="namedview10547"
     pagecolor="#ffffff"
     bordercolor="#666666"
     borderopacity="1.0"
     inkscape:showpageshadow="2"
     inkscape:pageopacity="0.0"
     inkscape:pagecheckerboard="0"
     inkscape:deskcolor="#d1d1d1"
     inkscape:document-units="px"
     showgrid="false"
     showguides="true"
     inkscape:zoom="4"
     inkscape:cx="116.75"
     inkscape:cy="142"
     inkscape:window-width="2560"
     inkscape:window-height="1301"
     inkscape:window-x="0"
     inkscape:window-y="0"
     inkscape:window-maximized="1"
     inkscape:current-layer="layer1"><sodipodi:guide
       position="33.410255,22.548965"
       orientation="1,0"
       id="guide11221"
       inkscape:locked="false" /></sodipodi:namedview><defs
     id="defs10542" /><g
     inkscape:label="Warstwa 1"
     inkscape:groupmode="layer"
     id="layer1"><path
       id="path11764"
       style="fill:#fffe47;fill-opacity:0.88;stroke:none;stroke-width:6.99104;stroke-linecap:round;stroke-linejoin:round;stroke-dasharray:none;stroke-opacity:1"
       d="M 34.468697 2.0060791 A 30.528658 30.528658 0 0 0 3.9398111 32.534448 A 30.528658 30.528658 0 0 0 34.468697 63.063333 A 30.528658 30.528658 0 0 0 64.997065 32.534448 A 30.528658 30.528658 0 0 0 34.468697 2.0060791 z M 34.352425 12.031307 C 34.648854 12.037857 34.947319 12.058651 35.247461 12.094352 C 43.557447 13.082792 47.309014 20.165883 46.351692 25.917798 C 45.616156 30.337143 36.795686 35.369417 36.795686 35.369417 C 36.795686 35.369417 36.692715 38.216777 36.716105 39.282873 C 36.793621 42.816643 29.994071 43.684587 30.195056 39.324731 L 30.507698 32.534448 C 30.713606 28.06781 43.381747 27.937863 38.891166 21.137728 C 34.616169 14.664055 28.247938 22.321885 27.336316 23.473502 C 25.361475 25.968242 19.225061 23.143407 22.326802 19.36936 C 25.878794 15.047471 29.905989 11.933057 34.352425 12.031307 z M 33.410363 45.184322 A 3.8268661 3.8268661 0 0 1 37.237003 49.011478 A 3.8268661 3.8268661 0 0 1 33.410363 52.838118 A 3.8268661 3.8268661 0 0 1 29.583207 49.011478 A 3.8268661 3.8268661 0 0 1 33.410363 45.184322 z " /></g></svg>
